<svg xmlns="http://www.w3.org/2000/svg" viewBox="0 0 1200 320" role="img" aria-labelledby="title desc">
  <title id="title">Pureflow banner</title>
  <desc id="desc">A decorative banner showing a flow graph, bounded channels, and the Pureflow project title.</desc>
  <defs>
    <linearGradient id="bg" x1="0" y1="0" x2="1" y2="1">
      <stop offset="0%" stop-color="#020617"/>
      <stop offset="55%" stop-color="#0f172a"/>
      <stop offset="100%" stop-color="#111827"/>
    </linearGradient>
    <linearGradient id="accent" x1="0" y1="0" x2="1" y2="1">
      <stop offset="0%" stop-color="#38bdf8"/>
      <stop offset="50%" stop-color="#22c55e"/>
      <stop offset="100%" stop-color="#f59e0b"/>
    </linearGradient>
    <pattern id="grid" width="32" height="32" patternUnits="userSpaceOnUse">
      <path d="M 32 0 L 0 0 0 32" fill="none" stroke="#64748b" stroke-opacity="0.18" stroke-width="1"/>
    </pattern>
    <filter id="shadow" x="-20%" y="-30%" width="140%" height="180%">
      <feDropShadow dx="0" dy="14" stdDeviation="18" flood-color="#020617" flood-opacity="0.45"/>
    </filter>
  </defs>

  <rect x="0" y="0" width="1200" height="320" rx="34" fill="url(#bg)"/>
  <rect x="0" y="0" width="1200" height="320" rx="34" fill="url(#grid)" opacity="0.55"/>

  <circle cx="120" cy="84" r="110" fill="#38bdf8" opacity="0.14"/>
  <circle cx="1040" cy="250" r="150" fill="#f59e0b" opacity="0.10"/>
  <circle cx="970" cy="78" r="68" fill="#22c55e" opacity="0.08"/>

  <g transform="translate(70 66)">
    <text x="0" y="0" fill="#cbd5e1" font-family="Inter, ui-sans-serif, system-ui, sans-serif" font-size="18" font-weight="700" letter-spacing="0.22em">
      FLOW-BASED WORKFLOW ENGINE
    </text>
    <text x="0" y="78" fill="#ffffff" font-family="Inter, ui-sans-serif, system-ui, sans-serif" font-size="72" font-weight="800">
      Pureflow
    </text>
    <text x="0" y="126" fill="#d1d5db" font-family="Inter, ui-sans-serif, system-ui, sans-serif" font-size="26" font-weight="500">
      Bounded channels, explicit contracts, observable runs.
    </text>
    <text x="0" y="160" fill="#94a3b8" font-family="Inter, ui-sans-serif, system-ui, sans-serif" font-size="18">
      Rust • metadata JSONL • native executors • WASM batch nodes
    </text>

    <g transform="translate(0 200)">
      <rect x="0" y="0" width="110" height="34" rx="17" fill="#0f172a" stroke="#38bdf8" stroke-opacity="0.7"/>
      <text x="55" y="22" text-anchor="middle" fill="#e2e8f0" font-family="Inter, ui-sans-serif, system-ui, sans-serif" font-size="14" font-weight="700">validate</text>

      <rect x="122" y="0" width="90" height="34" rx="17" fill="#0f172a" stroke="#22c55e" stroke-opacity="0.7"/>
      <text x="167" y="22" text-anchor="middle" fill="#e2e8f0" font-family="Inter, ui-sans-serif, system-ui, sans-serif" font-size="14" font-weight="700">run</text>

      <rect x="224" y="0" width="112" height="34" rx="17" fill="#0f172a" stroke="#f59e0b" stroke-opacity="0.7"/>
      <text x="280" y="22" text-anchor="middle" fill="#e2e8f0" font-family="Inter, ui-sans-serif, system-ui, sans-serif" font-size="14" font-weight="700">observe</text>

      <rect x="348" y="0" width="116" height="34" rx="17" fill="#0f172a" stroke="#a78bfa" stroke-opacity="0.7"/>
      <text x="406" y="22" text-anchor="middle" fill="#e2e8f0" font-family="Inter, ui-sans-serif, system-ui, sans-serif" font-size="14" font-weight="700">summarize</text>
    </g>
  </g>

  <g transform="translate(660 84)" filter="url(#shadow)">
    <path d="M 40 98 C 120 42, 194 42, 274 98 S 432 154, 512 98" fill="none" stroke="url(#accent)" stroke-width="6" stroke-linecap="round"/>
    <circle cx="40" cy="98" r="11" fill="#38bdf8"/>
    <circle cx="172" cy="68" r="11" fill="#22c55e"/>
    <circle cx="304" cy="98" r="11" fill="#f59e0b"/>
    <circle cx="436" cy="68" r="11" fill="#a78bfa"/>
    <circle cx="512" cy="98" r="11" fill="#fb7185"/>

    <g>
      <rect x="0" y="132" width="108" height="52" rx="16" fill="#0b1220" stroke="#38bdf8" stroke-width="1.5"/>
      <text x="54" y="162" text-anchor="middle" fill="#f8fafc" font-family="Inter, ui-sans-serif, system-ui, sans-serif" font-size="16" font-weight="700">parse</text>
    </g>
    <g>
      <rect x="128" y="100" width="108" height="52" rx="16" fill="#0b1220" stroke="#22c55e" stroke-width="1.5"/>
      <text x="182" y="130" text-anchor="middle" fill="#f8fafc" font-family="Inter, ui-sans-serif, system-ui, sans-serif" font-size="16" font-weight="700">validate</text>
    </g>
    <g>
      <rect x="256" y="132" width="108" height="52" rx="16" fill="#0b1220" stroke="#f59e0b" stroke-width="1.5"/>
      <text x="310" y="162" text-anchor="middle" fill="#f8fafc" font-family="Inter, ui-sans-serif, system-ui, sans-serif" font-size="16" font-weight="700">execute</text>
    </g>
    <g>
      <rect x="384" y="100" width="108" height="52" rx="16" fill="#0b1220" stroke="#a78bfa" stroke-width="1.5"/>
      <text x="438" y="130" text-anchor="middle" fill="#f8fafc" font-family="Inter, ui-sans-serif, system-ui, sans-serif" font-size="16" font-weight="700">emit</text>
    </g>
  </g>
</svg>
